<?xml version="1.0" encoding="UTF-8" standalone="no"?>
<!-- Generator: Adobe Illustrator 27.5.0, SVG Export Plug-In . SVG Version: 6.00 Build 0)  -->

<svg
   version="1.1"
   x="0px"
   y="0px"
   viewBox="0 0 800 800"
   style="enable-background:new 0 0 800 800;"
   xml:space="preserve"
   id="svg23"
   sodipodi:docname="instagram_logo.svg"
   inkscape:version="1.2.2 (b0a8486541, 2022-12-01)"
   xmlns:inkscape="http://www.inkscape.org/namespaces/inkscape"
   xmlns:sodipodi="http://sodipodi.sourceforge.net/DTD/sodipodi-0.dtd"
   xmlns="http://www.w3.org/2000/svg"
   xmlns:svg="http://www.w3.org/2000/svg"><defs
   id="defs27" /><sodipodi:namedview
   id="namedview25"
   pagecolor="#505050"
   bordercolor="#eeeeee"
   borderopacity="1"
   inkscape:showpageshadow="0"
   inkscape:pageopacity="0"
   inkscape:pagecheckerboard="0"
   inkscape:deskcolor="#505050"
   showgrid="false"
   inkscape:zoom="1.015"
   inkscape:cx="400.49261"
   inkscape:cy="321.18227"
   inkscape:window-width="1920"
   inkscape:window-height="1000"
   inkscape:window-x="0"
   inkscape:window-y="44"
   inkscape:window-maximized="1"
   inkscape:current-layer="svg23" />
<g
   id="_x31_3"
   transform="matrix(1.450116,0,0,1.450116,-180.0464,-180.0464)">
	<g
   id="g19">
		<g
   id="g13">
			<linearGradient
   id="SVGID_1_"
   gradientUnits="userSpaceOnUse"
   x1="582.47339"
   y1="565.30933"
   x2="209.6897"
   y2="227.59171">
				<stop
   offset="0"
   style="stop-color:#FEC053"
   id="stop2" />
				<stop
   offset="0.3273"
   style="stop-color:#F2203E"
   id="stop4" />
				<stop
   offset="0.6485"
   style="stop-color:#B729A8"
   id="stop6" />
				<stop
   offset="1"
   style="stop-color:#5342D6"
   id="stop8" />
			</linearGradient>
			<path
   style="clip-rule:evenodd;fill:url(#SVGID_1_);fill-rule:evenodd"
   d="m 218.459,127.608 h 363.085 c 49.938,0 90.848,40.904 90.848,90.848 v 363.088 c 0,49.942 -40.909,90.848 -90.848,90.848 H 218.459 c -49.947,0 -90.851,-40.906 -90.851,-90.848 V 218.456 c 0,-49.944 40.904,-90.848 90.851,-90.848 z"
   id="path11" />
		</g>
		<g
   id="g17">
			<path
   style="clip-rule:evenodd;fill:#ffffff;fill-rule:evenodd"
   d="m 526.769,400.003 c 0,-70.027 -56.743,-126.77 -126.769,-126.77 -70.027,0 -126.767,56.743 -126.767,126.77 0,70.023 56.74,126.767 126.767,126.767 70.026,-10e-4 126.769,-56.744 126.769,-126.767 z m -2.4,-143.998 c -11.316,0 -20.399,9.172 -20.399,20.399 0,11.316 9.083,20.402 20.399,20.402 11.229,0 20.398,-9.086 20.398,-20.402 10e-4,-11.227 -9.168,-20.399 -20.398,-20.399 z M 296.376,226.693 h 207.25 c 38.401,0 69.684,31.37 69.684,69.681 v 207.249 c 0,38.401 -31.282,69.69 -69.684,69.69 h -207.25 c -38.314,0 -69.686,-31.288 -69.686,-69.69 V 296.374 c 0,-38.311 31.373,-69.681 69.686,-69.681 z m 207.25,-23.23 h -207.25 c -51.087,0 -92.913,41.826 -92.913,92.91 v 207.249 c 0,51.174 41.826,92.916 92.913,92.916 h 207.25 c 51.171,0 92.91,-41.742 92.91,-92.916 V 296.374 c 0,-51.085 -41.739,-92.911 -92.91,-92.911 z m -204.081,196.54 c 0,-55.459 44.999,-100.458 100.455,-100.458 55.456,0 100.455,44.999 100.455,100.458 0,55.456 -44.999,100.449 -100.455,100.449 -55.456,0 -100.455,-44.993 -100.455,-100.449 z"
   id="path15" />
		</g>
	</g>
</g>
<g
   id="Layer_1">
</g>
</svg>
